C:\Users\r0593348\3dpredictsim\Results\Batchsim_tmt_linear_v2\Pog_s1_tmt_bCst_d02_k500_ig24_act_GRF.mot
nRows=15
nColumns=19

name C:\Users\r0593348\3dpredictsim\Results\Batchsim_tmt_linear_v2\Pog_s1_tmt_bCst_d02_k500_ig24_act_GRF.mot
datacolumns 19
datarows 15
range 0.6483884135 0.8299371693
endheader
time 	ground_force_vx	ground_force_vy	ground_force_vz	ground_force_px	ground_force_py	ground_force_pz	1_ground_force_vx	1_ground_force_vy	1_ground_force_vz	1_ground_force_px	1_ground_force_py	1_ground_force_pz	ground_torque_x	ground_torque_y	ground_torque_z	1_ground_torque_x	1_ground_torque_y	1_ground_torque_z
        0.6483884135	       63.5272343842	      295.3706534396	       11.5671094094	        0.4292415157	        0.0000000000	        0.0467546358	      -84.9987498163	       68.1224378743	      -12.3638192724	        1.1998704193	        0.0000000000	       -0.0292279798	        0.0000000000	        0.0000000000	        0.0000000000	        0.0000000000	        0.0000000000	        0.0000000000	
        0.6613561818	       38.6236239981	      241.0079395068	       12.5841099986	        0.4461835595	        0.0000000000	        0.0459070476	     -170.6017700486	      159.3972156682	      -22.4717987895	        1.1802714550	        0.0000000000	       -0.0384867994	        0.0000000000	        0.0000000000	        0.0000000000	        0.0000000000	        0.0000000000	        0.0000000000	
        0.6743239500	       41.9141574552	      207.2100502014	       15.8264538277	        0.4466732532	        0.0000000000	        0.0461006174	     -197.3523327053	      461.5640509663	       -2.3998072861	        1.1497945426	        0.0000000000	       -0.0510043054	        0.0000000000	        0.0000000000	        0.0000000000	        0.0000000000	        0.0000000000	        0.0000000000	
        0.6872917183	       38.8458730767	      163.6399423828	       17.6813301538	        0.4471090479	        0.0000000000	        0.0462861945	     -215.5831463887	      683.0351900910	        7.3242150015	        1.1346012678	        0.0000000000	       -0.0556894703	        0.0000000000	        0.0000000000	        0.0000000000	        0.0000000000	        0.0000000000	        0.0000000000	
        0.7002594866	       30.9431712951	      108.8862027243	       18.4214281653	        0.4476434587	        0.0000000000	        0.0466455176	     -220.0085757105	      850.8777154911	       13.1846152685	        1.1254593108	        0.0000000000	       -0.0587393253	        0.0000000000	        0.0000000000	        0.0000000000	        0.0000000000	        0.0000000000	        0.0000000000	
        0.7132272548	        9.3087837726	       40.8430845938	        9.0675956277	        0.4472942512	        0.0000000000	        0.0466310445	     -218.2932129460	      890.2368362664	       13.9291187223	        1.1211729079	        0.0000000000	       -0.0602571176	        0.0000000000	        0.0000000000	        0.0000000000	        0.0000000000	        0.0000000000	        0.0000000000	
        0.7261950231	        0.2480370985	       -0.2513723296	       -0.0258639405	        0.0000000000	        0.0000000000	        0.0000000000	     -204.7517320483	      871.2506014303	       14.5161884633	        1.1181899443	        0.0000000000	       -0.0611660337	        0.0000000000	        0.0000000000	        0.0000000000	        0.0000000000	        0.0000000000	        0.0000000000	
        0.7391627914	        0.3600297466	       -0.2694536469	        0.0160137312	        0.0000000000	        0.0000000000	        0.0000000000	     -180.8040675457	      835.5942379741	       14.7286522167	        1.1167736667	        0.0000000000	       -0.0617606283	        0.0000000000	        0.0000000000	        0.0000000000	        0.0000000000	        0.0000000000	        0.0000000000	
        0.7521305597	       -8.2375744976	        5.2117377711	       -0.5465231040	        0.0000000000	        0.0000000000	        0.0000000000	     -158.9269592141	      786.3015996900	       15.1178542499	        1.1169250472	        0.0000000000	       -0.0621788273	        0.0000000000	        0.0000000000	        0.0000000000	        0.0000000000	        0.0000000000	        0.0000000000	
        0.7650983279	       -8.8220751754	        4.9157852441	       -0.6379884769	        0.0000000000	        0.0000000000	        0.0000000000	     -139.8852492581	      740.2159061494	       15.7201828676	        1.1179281882	        0.0000000000	       -0.0625111917	        0.0000000000	        0.0000000000	        0.0000000000	        0.0000000000	        0.0000000000	        0.0000000000	
        0.7780660962	       -7.3708768045	        3.7047423300	       -0.5705511253	        0.0000000000	        0.0000000000	        0.0000000000	     -122.4780888343	      702.9486624477	       15.6528614840	        1.1193980947	        0.0000000000	       -0.0628174377	        0.0000000000	        0.0000000000	        0.0000000000	        0.0000000000	        0.0000000000	        0.0000000000	
        0.7910338645	       -6.6472400227	        3.1100087679	       -0.5079193624	        0.0000000000	        0.0000000000	        0.0000000000	     -107.5132462177	      674.9743623091	       16.0102432510	        1.1213805751	        0.0000000000	       -0.0630012627	        0.0000000000	        0.0000000000	        0.0000000000	        0.0000000000	        0.0000000000	        0.0000000000	
        0.8040016327	       -5.9085611499	        2.6491184760	       -0.3869609739	        0.0000000000	        0.0000000000	        0.0000000000	      -96.0106828243	      652.7491599928	       16.5439168129	        1.1237354809	        0.0000000000	       -0.0630282847	        0.0000000000	        0.0000000000	        0.0000000000	        0.0000000000	        0.0000000000	        0.0000000000	
        0.8169694010	       -5.1639853936	        2.2334347207	       -0.2868447043	        0.0000000000	        0.0000000000	        0.0000000000	      -86.9735892977	      634.0927875816	       17.5559225147	        1.1262118247	        0.0000000000	       -0.0629313497	        0.0000000000	        0.0000000000	        0.0000000000	        0.0000000000	        0.0000000000	        0.0000000000	
        0.8299371693	       -4.3337180827	        1.8211938989	       -0.1982376808	        0.0000000000	        0.0000000000	        0.0000000000	      -79.5671798481	      616.5511243613	       18.7945493702	        1.1285852737	        0.0000000000	       -0.0627593799	        0.0000000000	        0.0000000000	        0.0000000000	        0.0000000000	        0.0000000000	        0.0000000000	
